<mxfile host="app.diagrams.net" agent="Mozilla/5.0 (Windows NT 10.0; Win64; x64) AppleWebKit/537.36 (KHTML, like Gecko) Chrome/135.0.0.0 Safari/537.36" version="26.2.9">
  <diagram name="第 1 页" id="efTru-hh168xKInYzRl9">
    <mxGraphModel dx="1428" dy="785" grid="1" gridSize="10" guides="1" tooltips="1" connect="1" arrows="1" fold="1" page="1" pageScale="1" pageWidth="827" pageHeight="1169" math="0" shadow="0">
      <root>
        <mxCell id="0" />
        <mxCell id="1" parent="0" />
        <mxCell id="eTfjhbQMDLVR2cvrAfJk-1" value="" style="edgeStyle=orthogonalEdgeStyle;rounded=0;orthogonalLoop=1;jettySize=auto;html=1;" edge="1" parent="1" source="eTfjhbQMDLVR2cvrAfJk-2" target="eTfjhbQMDLVR2cvrAfJk-4">
          <mxGeometry relative="1" as="geometry" />
        </mxCell>
        <mxCell id="eTfjhbQMDLVR2cvrAfJk-2" value="开始" style="strokeWidth=2;html=1;shape=mxgraph.flowchart.start_2;whiteSpace=wrap;" vertex="1" parent="1">
          <mxGeometry x="395" y="10" width="80" height="40" as="geometry" />
        </mxCell>
        <mxCell id="eTfjhbQMDLVR2cvrAfJk-3" value="" style="edgeStyle=orthogonalEdgeStyle;rounded=0;orthogonalLoop=1;jettySize=auto;html=1;" edge="1" parent="1" source="eTfjhbQMDLVR2cvrAfJk-4" target="eTfjhbQMDLVR2cvrAfJk-40">
          <mxGeometry relative="1" as="geometry" />
        </mxCell>
        <mxCell id="eTfjhbQMDLVR2cvrAfJk-4" value="获取缓存中的lastUpdateTime,&lt;br&gt;如果为null 取当前时间&amp;nbsp;&lt;br&gt;&lt;span style=&quot;background-color: transparent;&quot;&gt;select&amp;nbsp; * from bond_amount&lt;/span&gt;&lt;div&gt;where update_time&amp;gt;{lastUpdateTime}&lt;/div&gt;" style="whiteSpace=wrap;html=1;strokeWidth=2;" vertex="1" parent="1">
          <mxGeometry x="320" y="90" width="230" height="60" as="geometry" />
        </mxCell>
        <mxCell id="eTfjhbQMDLVR2cvrAfJk-45" value="" style="edgeStyle=orthogonalEdgeStyle;rounded=0;orthogonalLoop=1;jettySize=auto;html=1;" edge="1" parent="1" source="eTfjhbQMDLVR2cvrAfJk-40" target="eTfjhbQMDLVR2cvrAfJk-44">
          <mxGeometry relative="1" as="geometry" />
        </mxCell>
        <mxCell id="eTfjhbQMDLVR2cvrAfJk-46" value="有数据" style="edgeLabel;html=1;align=center;verticalAlign=middle;resizable=0;points=[];" vertex="1" connectable="0" parent="eTfjhbQMDLVR2cvrAfJk-45">
          <mxGeometry x="-0.025" relative="1" as="geometry">
            <mxPoint as="offset" />
          </mxGeometry>
        </mxCell>
        <mxCell id="eTfjhbQMDLVR2cvrAfJk-103" value="" style="edgeStyle=orthogonalEdgeStyle;rounded=0;orthogonalLoop=1;jettySize=auto;html=1;" edge="1" parent="1" source="eTfjhbQMDLVR2cvrAfJk-40" target="eTfjhbQMDLVR2cvrAfJk-102">
          <mxGeometry relative="1" as="geometry" />
        </mxCell>
        <mxCell id="eTfjhbQMDLVR2cvrAfJk-40" value="获取一条" style="rhombus;whiteSpace=wrap;html=1;strokeWidth=2;" vertex="1" parent="1">
          <mxGeometry x="395" y="200" width="80" height="80" as="geometry" />
        </mxCell>
        <mxCell id="eTfjhbQMDLVR2cvrAfJk-43" value="结束" style="strokeWidth=2;html=1;shape=mxgraph.flowchart.terminator;whiteSpace=wrap;" vertex="1" parent="1">
          <mxGeometry x="376.5" y="1000" width="100" height="60" as="geometry" />
        </mxCell>
        <mxCell id="eTfjhbQMDLVR2cvrAfJk-48" value="" style="edgeStyle=orthogonalEdgeStyle;rounded=0;orthogonalLoop=1;jettySize=auto;html=1;" edge="1" parent="1" source="eTfjhbQMDLVR2cvrAfJk-44" target="eTfjhbQMDLVR2cvrAfJk-47">
          <mxGeometry relative="1" as="geometry" />
        </mxCell>
        <mxCell id="eTfjhbQMDLVR2cvrAfJk-56" value="!=1" style="edgeLabel;html=1;align=center;verticalAlign=middle;resizable=0;points=[];" vertex="1" connectable="0" parent="eTfjhbQMDLVR2cvrAfJk-48">
          <mxGeometry x="-0.1973" y="1" relative="1" as="geometry">
            <mxPoint x="1" as="offset" />
          </mxGeometry>
        </mxCell>
        <mxCell id="eTfjhbQMDLVR2cvrAfJk-59" value="" style="edgeStyle=orthogonalEdgeStyle;rounded=0;orthogonalLoop=1;jettySize=auto;html=1;" edge="1" parent="1" source="eTfjhbQMDLVR2cvrAfJk-44" target="eTfjhbQMDLVR2cvrAfJk-58">
          <mxGeometry relative="1" as="geometry" />
        </mxCell>
        <mxCell id="eTfjhbQMDLVR2cvrAfJk-60" value="=1" style="edgeLabel;html=1;align=center;verticalAlign=middle;resizable=0;points=[];" vertex="1" connectable="0" parent="eTfjhbQMDLVR2cvrAfJk-59">
          <mxGeometry x="-0.15" y="4" relative="1" as="geometry">
            <mxPoint as="offset" />
          </mxGeometry>
        </mxCell>
        <mxCell id="eTfjhbQMDLVR2cvrAfJk-44" value="change_reason" style="rhombus;whiteSpace=wrap;html=1;strokeWidth=2;" vertex="1" parent="1">
          <mxGeometry x="385.5" y="342" width="101" height="68" as="geometry" />
        </mxCell>
        <mxCell id="eTfjhbQMDLVR2cvrAfJk-98" value="" style="edgeStyle=orthogonalEdgeStyle;rounded=0;orthogonalLoop=1;jettySize=auto;html=1;exitX=0.5;exitY=0;exitDx=0;exitDy=0;" edge="1" parent="1" source="eTfjhbQMDLVR2cvrAfJk-47">
          <mxGeometry relative="1" as="geometry">
            <mxPoint x="476" y="240" as="targetPoint" />
            <Array as="points">
              <mxPoint x="725" y="240" />
            </Array>
          </mxGeometry>
        </mxCell>
        <mxCell id="eTfjhbQMDLVR2cvrAfJk-47" value="债券组合编码加入combinationCodes集合" style="whiteSpace=wrap;html=1;strokeWidth=2;" vertex="1" parent="1">
          <mxGeometry x="665" y="346" width="120" height="60" as="geometry" />
        </mxCell>
        <mxCell id="eTfjhbQMDLVR2cvrAfJk-71" value="" style="edgeStyle=orthogonalEdgeStyle;rounded=0;orthogonalLoop=1;jettySize=auto;html=1;entryX=0;entryY=0.5;entryDx=0;entryDy=0;" edge="1" parent="1" source="eTfjhbQMDLVR2cvrAfJk-58" target="eTfjhbQMDLVR2cvrAfJk-72">
          <mxGeometry relative="1" as="geometry">
            <mxPoint x="586" y="506" as="targetPoint" />
          </mxGeometry>
        </mxCell>
        <mxCell id="eTfjhbQMDLVR2cvrAfJk-73" value="满足" style="edgeLabel;html=1;align=center;verticalAlign=middle;resizable=0;points=[];" vertex="1" connectable="0" parent="eTfjhbQMDLVR2cvrAfJk-71">
          <mxGeometry x="0.1211" y="-2" relative="1" as="geometry">
            <mxPoint as="offset" />
          </mxGeometry>
        </mxCell>
        <mxCell id="eTfjhbQMDLVR2cvrAfJk-75" value="" style="edgeStyle=orthogonalEdgeStyle;rounded=0;orthogonalLoop=1;jettySize=auto;html=1;" edge="1" parent="1" source="eTfjhbQMDLVR2cvrAfJk-58" target="eTfjhbQMDLVR2cvrAfJk-74">
          <mxGeometry relative="1" as="geometry" />
        </mxCell>
        <mxCell id="eTfjhbQMDLVR2cvrAfJk-76" value="不满足" style="edgeLabel;html=1;align=center;verticalAlign=middle;resizable=0;points=[];" vertex="1" connectable="0" parent="eTfjhbQMDLVR2cvrAfJk-75">
          <mxGeometry x="-0.0376" y="-1" relative="1" as="geometry">
            <mxPoint as="offset" />
          </mxGeometry>
        </mxCell>
        <mxCell id="eTfjhbQMDLVR2cvrAfJk-58" value="验证相关数据是否满足生成到期兑付记录" style="rhombus;whiteSpace=wrap;html=1;strokeWidth=2;" vertex="1" parent="1">
          <mxGeometry x="370.75" y="466" width="130.5" height="80" as="geometry" />
        </mxCell>
        <mxCell id="eTfjhbQMDLVR2cvrAfJk-101" value="" style="edgeStyle=orthogonalEdgeStyle;rounded=0;orthogonalLoop=1;jettySize=auto;html=1;" edge="1" parent="1" source="eTfjhbQMDLVR2cvrAfJk-72">
          <mxGeometry relative="1" as="geometry">
            <mxPoint x="726" y="410" as="targetPoint" />
          </mxGeometry>
        </mxCell>
        <mxCell id="eTfjhbQMDLVR2cvrAfJk-72" value="更新或者插入一条有效的到期兑付数据" style="whiteSpace=wrap;html=1;strokeWidth=2;" vertex="1" parent="1">
          <mxGeometry x="560" y="484" width="120" height="44" as="geometry" />
        </mxCell>
        <mxCell id="eTfjhbQMDLVR2cvrAfJk-78" value="" style="edgeStyle=orthogonalEdgeStyle;rounded=0;orthogonalLoop=1;jettySize=auto;html=1;" edge="1" parent="1" source="eTfjhbQMDLVR2cvrAfJk-74" target="eTfjhbQMDLVR2cvrAfJk-77">
          <mxGeometry relative="1" as="geometry" />
        </mxCell>
        <mxCell id="eTfjhbQMDLVR2cvrAfJk-83" value="存在" style="edgeLabel;html=1;align=center;verticalAlign=middle;resizable=0;points=[];" vertex="1" connectable="0" parent="eTfjhbQMDLVR2cvrAfJk-78">
          <mxGeometry x="-0.15" y="3" relative="1" as="geometry">
            <mxPoint as="offset" />
          </mxGeometry>
        </mxCell>
        <mxCell id="eTfjhbQMDLVR2cvrAfJk-80" value="" style="edgeStyle=orthogonalEdgeStyle;rounded=0;orthogonalLoop=1;jettySize=auto;html=1;entryX=0.5;entryY=1;entryDx=0;entryDy=0;" edge="1" parent="1" source="eTfjhbQMDLVR2cvrAfJk-74" target="eTfjhbQMDLVR2cvrAfJk-47">
          <mxGeometry relative="1" as="geometry">
            <mxPoint x="766" y="410" as="targetPoint" />
          </mxGeometry>
        </mxCell>
        <mxCell id="eTfjhbQMDLVR2cvrAfJk-81" value="不存" style="edgeLabel;html=1;align=center;verticalAlign=middle;resizable=0;points=[];" vertex="1" connectable="0" parent="eTfjhbQMDLVR2cvrAfJk-80">
          <mxGeometry x="0.0168" relative="1" as="geometry">
            <mxPoint as="offset" />
          </mxGeometry>
        </mxCell>
        <mxCell id="eTfjhbQMDLVR2cvrAfJk-74" value="当前组合编码是否存在有效的到期兑付记录" style="rhombus;whiteSpace=wrap;html=1;strokeWidth=2;" vertex="1" parent="1">
          <mxGeometry x="386.5" y="600" width="100" height="80" as="geometry" />
        </mxCell>
        <mxCell id="eTfjhbQMDLVR2cvrAfJk-88" value="" style="edgeStyle=orthogonalEdgeStyle;rounded=0;orthogonalLoop=1;jettySize=auto;html=1;" edge="1" parent="1" source="eTfjhbQMDLVR2cvrAfJk-77">
          <mxGeometry relative="1" as="geometry">
            <mxPoint x="726" y="410" as="targetPoint" />
          </mxGeometry>
        </mxCell>
        <mxCell id="eTfjhbQMDLVR2cvrAfJk-89" value="存在" style="edgeLabel;html=1;align=center;verticalAlign=middle;resizable=0;points=[];" vertex="1" connectable="0" parent="eTfjhbQMDLVR2cvrAfJk-88">
          <mxGeometry x="-0.2524" y="-1" relative="1" as="geometry">
            <mxPoint x="1" as="offset" />
          </mxGeometry>
        </mxCell>
        <mxCell id="eTfjhbQMDLVR2cvrAfJk-91" value="" style="edgeStyle=orthogonalEdgeStyle;rounded=0;orthogonalLoop=1;jettySize=auto;html=1;" edge="1" parent="1" source="eTfjhbQMDLVR2cvrAfJk-77" target="eTfjhbQMDLVR2cvrAfJk-90">
          <mxGeometry relative="1" as="geometry" />
        </mxCell>
        <mxCell id="eTfjhbQMDLVR2cvrAfJk-92" value="不存在" style="edgeLabel;html=1;align=center;verticalAlign=middle;resizable=0;points=[];" vertex="1" connectable="0" parent="eTfjhbQMDLVR2cvrAfJk-91">
          <mxGeometry x="-0.2" y="1" relative="1" as="geometry">
            <mxPoint as="offset" />
          </mxGeometry>
        </mxCell>
        <mxCell id="eTfjhbQMDLVR2cvrAfJk-77" value="当前组合编码是否存在有效的首发且满足生成到期兑付" style="rhombus;whiteSpace=wrap;html=1;strokeWidth=2;" vertex="1" parent="1">
          <mxGeometry x="386.5" y="730" width="100" height="80" as="geometry" />
        </mxCell>
        <mxCell id="eTfjhbQMDLVR2cvrAfJk-96" value="" style="edgeStyle=orthogonalEdgeStyle;rounded=0;orthogonalLoop=1;jettySize=auto;html=1;entryX=0.5;entryY=1;entryDx=0;entryDy=0;" edge="1" parent="1" source="eTfjhbQMDLVR2cvrAfJk-90" target="eTfjhbQMDLVR2cvrAfJk-47">
          <mxGeometry relative="1" as="geometry">
            <mxPoint x="756" y="410" as="targetPoint" />
            <Array as="points">
              <mxPoint x="726" y="895" />
              <mxPoint x="726" y="410" />
              <mxPoint x="725" y="410" />
            </Array>
          </mxGeometry>
        </mxCell>
        <mxCell id="eTfjhbQMDLVR2cvrAfJk-90" value="把组合编码对应的到期兑付设置成无效" style="whiteSpace=wrap;html=1;strokeWidth=2;" vertex="1" parent="1">
          <mxGeometry x="376.5" y="870" width="120" height="50" as="geometry" />
        </mxCell>
        <mxCell id="eTfjhbQMDLVR2cvrAfJk-105" value="" style="edgeStyle=orthogonalEdgeStyle;rounded=0;orthogonalLoop=1;jettySize=auto;html=1;" edge="1" parent="1" source="eTfjhbQMDLVR2cvrAfJk-102" target="eTfjhbQMDLVR2cvrAfJk-104">
          <mxGeometry relative="1" as="geometry" />
        </mxCell>
        <mxCell id="eTfjhbQMDLVR2cvrAfJk-109" value="有数据" style="edgeLabel;html=1;align=center;verticalAlign=middle;resizable=0;points=[];" vertex="1" connectable="0" parent="eTfjhbQMDLVR2cvrAfJk-105">
          <mxGeometry x="-0.2791" y="1" relative="1" as="geometry">
            <mxPoint as="offset" />
          </mxGeometry>
        </mxCell>
        <mxCell id="eTfjhbQMDLVR2cvrAfJk-107" value="" style="edgeStyle=orthogonalEdgeStyle;rounded=0;orthogonalLoop=1;jettySize=auto;html=1;entryX=0;entryY=0.5;entryDx=0;entryDy=0;entryPerimeter=0;" edge="1" parent="1" source="eTfjhbQMDLVR2cvrAfJk-102" target="eTfjhbQMDLVR2cvrAfJk-43">
          <mxGeometry relative="1" as="geometry">
            <mxPoint x="65" y="335" as="targetPoint" />
          </mxGeometry>
        </mxCell>
        <mxCell id="eTfjhbQMDLVR2cvrAfJk-108" value="无数据" style="edgeLabel;html=1;align=center;verticalAlign=middle;resizable=0;points=[];" vertex="1" connectable="0" parent="eTfjhbQMDLVR2cvrAfJk-107">
          <mxGeometry x="-0.1579" y="-2" relative="1" as="geometry">
            <mxPoint as="offset" />
          </mxGeometry>
        </mxCell>
        <mxCell id="eTfjhbQMDLVR2cvrAfJk-102" value="从combinationCodes获&lt;br&gt;取一个组合编码" style="rhombus;whiteSpace=wrap;html=1;strokeWidth=2;" vertex="1" parent="1">
          <mxGeometry x="160" y="290" width="150" height="130" as="geometry" />
        </mxCell>
        <mxCell id="eTfjhbQMDLVR2cvrAfJk-111" value="" style="edgeStyle=orthogonalEdgeStyle;rounded=0;orthogonalLoop=1;jettySize=auto;html=1;entryX=0;entryY=0.5;entryDx=0;entryDy=0;exitX=0;exitY=0.5;exitDx=0;exitDy=0;" edge="1" parent="1" source="eTfjhbQMDLVR2cvrAfJk-104" target="eTfjhbQMDLVR2cvrAfJk-102">
          <mxGeometry relative="1" as="geometry">
            <mxPoint x="170" y="555" as="sourcePoint" />
            <mxPoint x="95" y="555" as="targetPoint" />
            <Array as="points">
              <mxPoint x="140" y="555" />
              <mxPoint x="140" y="355" />
            </Array>
          </mxGeometry>
        </mxCell>
        <mxCell id="eTfjhbQMDLVR2cvrAfJk-104" value="根据组合编码 按照change_date 正序处理remain_amount" style="whiteSpace=wrap;html=1;strokeWidth=2;" vertex="1" parent="1">
          <mxGeometry x="175" y="525" width="120" height="60" as="geometry" />
        </mxCell>
      </root>
    </mxGraphModel>
  </diagram>
</mxfile>
